<svg id="svg" version="1.1" xmlns="http://www.w3.org/2000/svg" xmlns:xlink="http://www.w3.org/1999/xlink" width="400" height="200" viewBox="0, 0, 400,200"><g id="svgg"><path id="path0" d="M299.500 51.750 L 299.500 64.833 300.816 64.833 L 302.133 64.833 302.207 58.792 C 302.297 51.569,302.443 50.907,304.305 49.313 C 306.191 47.699,310.038 47.746,311.223 49.397 C 312.023 50.512,312.042 50.697,312.125 57.958 L 312.202 64.833 313.518 64.833 L 314.833 64.833 314.833 58.993 C 314.833 47.742,313.918 45.841,308.500 45.838 C 306.244 45.837,302.833 47.547,302.833 48.680 C 302.833 48.764,302.683 48.833,302.500 48.833 C 302.174 48.833,302.167 48.722,302.167 43.750 L 302.167 38.667 300.833 38.667 L 299.500 38.667 299.500 51.750 M80.258 39.852 C 75.836 40.496,73.419 43.486,74.150 47.408 C 74.727 50.510,76.455 51.803,81.872 53.188 C 86.751 54.434,87.874 55.348,87.891 58.082 C 87.926 63.679,79.284 64.371,75.378 59.083 L 75.009 58.583 74.577 59.083 C 74.339 59.358,73.953 59.828,73.718 60.127 L 73.291 60.671 73.753 61.338 C 76.682 65.565,84.925 66.463,88.747 62.973 C 91.367 60.580,91.494 55.830,89.002 53.387 C 87.696 52.107,86.294 51.520,82.083 50.492 C 77.774 49.440,76.654 48.372,76.880 45.528 C 77.176 41.807,83.793 40.846,87.380 44.002 C 88.333 44.842,88.323 44.843,89.068 43.762 C 89.813 42.680,89.762 42.494,88.453 41.527 C 86.462 40.057,83.296 39.409,80.258 39.852 M210.667 39.856 C 206.009 40.618,203.533 44.051,204.749 48.059 C 205.570 50.766,207.163 51.848,212.258 53.164 C 216.686 54.306,217.894 55.099,218.328 57.142 C 219.641 63.331,209.796 64.790,205.795 59.000 L 205.508 58.583 204.911 59.250 C 203.612 60.700,203.627 60.926,205.115 62.365 C 209.444 66.551,218.403 65.865,220.563 61.181 C 223.073 55.739,220.022 51.952,211.828 50.338 C 208.286 49.640,206.495 47.240,207.511 44.553 C 208.613 41.634,214.805 41.296,217.833 43.990 C 218.784 44.836,218.791 44.835,219.560 43.727 L 220.204 42.801 219.477 42.045 C 217.771 40.274,213.937 39.321,210.667 39.856 M321.833 48.333 L 321.833 56.500 323.167 56.500 L 324.500 56.500 324.500 48.333 L 324.500 40.167 323.167 40.167 L 321.833 40.167 321.833 48.333 M100.126 46.067 C 98.395 46.464,95.333 48.347,95.333 49.015 C 95.333 49.261,96.516 50.833,96.702 50.833 C 96.795 50.833,97.307 50.431,97.839 49.938 C 100.572 47.408,105.320 47.474,106.014 50.052 C 106.585 52.171,105.546 52.999,101.174 53.911 C 95.879 55.016,93.934 57.197,94.835 61.022 C 95.877 65.450,102.559 66.727,105.407 63.042 C 106.192 62.027,106.430 61.960,106.588 62.708 C 107.041 64.845,111.801 65.991,111.426 63.872 C 111.221 62.716,111.229 62.725,110.317 62.738 C 108.799 62.760,108.834 62.912,108.831 56.273 C 108.829 49.261,108.708 48.632,107.097 47.214 C 105.754 46.031,102.568 45.507,100.126 46.067 M167.215 46.167 C 162.009 47.531,159.518 54.900,162.275 60.782 C 164.724 66.009,173.223 66.745,176.412 62.007 C 176.735 61.526,177.000 61.044,177.000 60.936 C 177.000 60.731,175.234 59.697,175.125 59.837 C 175.091 59.881,174.790 60.296,174.457 60.760 C 172.738 63.154,168.356 63.503,166.050 61.430 C 164.842 60.344,164.223 58.942,164.132 57.083 L 164.083 56.083 170.575 56.040 C 177.914 55.990,177.327 56.127,177.331 54.465 C 177.346 47.971,173.226 44.591,167.215 46.167 M231.362 46.172 C 225.959 47.587,223.550 55.181,226.597 61.193 C 229.107 66.148,237.984 66.486,240.769 61.733 C 241.264 60.889,241.242 60.830,240.227 60.263 C 239.271 59.729,239.229 59.730,238.935 60.292 C 237.127 63.746,230.815 63.558,228.998 59.996 C 228.597 59.209,228.173 57.484,228.169 56.625 L 228.167 56.000 234.750 56.000 L 241.333 56.000 241.331 53.958 C 241.325 47.766,237.295 44.618,231.362 46.172 M250.247 46.159 C 248.853 46.524,247.275 47.412,246.360 48.346 L 245.697 49.022 246.307 49.922 C 247.051 51.018,247.148 51.027,248.018 50.083 C 250.650 47.228,256.174 47.499,256.462 50.498 C 256.644 52.389,255.683 53.097,251.937 53.833 C 247.351 54.734,245.640 55.937,245.179 58.581 C 244.441 62.820,247.604 65.733,252.149 65.000 C 254.034 64.696,256.333 63.235,256.333 62.340 C 256.333 61.902,256.829 62.232,257.010 62.792 C 257.498 64.294,258.328 64.833,260.155 64.833 C 261.679 64.833,261.908 64.646,261.753 63.522 L 261.633 62.651 260.905 62.760 C 260.246 62.859,260.129 62.822,259.672 62.364 L 259.167 61.859 259.167 55.950 C 259.167 49.550,259.135 49.279,258.221 47.960 C 256.951 46.124,253.420 45.326,250.247 46.159 M285.545 46.073 C 277.374 48.053,276.724 61.757,284.666 64.613 C 288.796 66.098,293.228 64.418,294.742 60.795 L 295.000 60.177 294.048 59.568 C 293.439 59.178,293.073 59.031,293.031 59.158 C 291.846 62.712,286.854 63.951,284.013 61.397 C 280.956 58.648,281.174 51.384,284.380 49.196 C 287.105 47.335,291.345 48.148,292.534 50.759 C 292.778 51.293,292.867 51.279,293.929 50.542 C 294.972 49.818,294.959 49.859,294.421 49.007 C 292.798 46.436,289.097 45.212,285.545 46.073 M188.833 46.153 C 187.444 46.474,186.242 47.372,185.651 48.530 C 185.083 49.644,184.833 49.380,184.833 47.667 L 184.833 46.167 183.583 46.167 L 182.333 46.167 182.333 55.500 L 182.333 64.833 183.667 64.833 L 185.000 64.833 185.000 59.458 C 185.000 52.859,185.199 51.528,186.422 49.925 C 187.399 48.644,189.815 48.095,191.504 48.771 C 192.319 49.097,192.269 49.141,192.661 47.771 L 192.977 46.664 192.508 46.421 C 191.946 46.130,189.654 45.963,188.833 46.153 M272.333 46.153 C 270.957 46.471,269.810 47.320,269.135 48.520 C 268.534 49.591,268.333 49.378,268.333 47.667 L 268.333 46.167 267.083 46.167 L 265.833 46.167 265.833 55.500 L 265.833 64.833 267.152 64.833 L 268.471 64.833 268.545 58.792 C 268.626 52.127,268.675 51.767,269.721 50.215 C 270.743 48.697,272.998 48.064,274.917 48.755 C 275.779 49.065,275.780 49.065,275.879 48.625 C 275.926 48.419,276.078 47.892,276.217 47.455 L 276.470 46.659 276.004 46.419 C 275.445 46.130,273.151 45.964,272.333 46.153 M113.500 46.326 C 113.500 46.505,114.157 49.258,115.827 56.083 C 116.455 58.650,117.189 61.650,117.456 62.750 L 117.943 64.750 119.632 64.797 L 121.321 64.845 121.574 63.964 C 122.205 61.777,124.216 54.660,124.437 53.833 C 124.987 51.783,125.529 50.167,125.667 50.167 C 125.902 50.167,125.919 50.216,127.428 55.348 C 128.221 58.044,129.174 61.281,129.546 62.542 L 130.222 64.833 131.905 64.833 L 133.587 64.833 134.059 62.875 C 134.319 61.798,134.940 59.229,135.439 57.167 C 135.937 55.104,136.649 52.142,137.019 50.583 C 137.389 49.025,137.761 47.533,137.846 47.267 C 138.177 46.227,138.119 46.167,136.792 46.168 L 135.583 46.169 133.845 53.924 C 132.486 59.987,132.054 61.669,131.866 61.631 C 131.669 61.592,128.986 52.820,127.326 46.792 L 127.154 46.167 125.750 46.167 L 124.346 46.167 124.156 46.875 C 124.051 47.265,123.596 48.896,123.145 50.500 C 122.695 52.104,121.873 55.029,121.319 57.000 C 119.995 61.714,120.011 61.667,119.737 61.667 C 119.607 61.667,119.500 61.628,119.500 61.582 C 119.500 61.535,119.341 60.804,119.147 59.957 C 118.952 59.110,118.736 58.154,118.666 57.833 C 118.382 56.528,116.162 46.890,116.065 46.542 C 115.955 46.145,113.500 45.939,113.500 46.326 M140.541 46.458 C 140.614 46.723,142.364 51.187,144.248 55.917 C 148.287 66.054,148.034 65.101,147.228 67.131 C 146.067 70.054,144.213 70.931,140.982 70.084 C 140.574 69.977,140.535 70.019,140.349 70.777 C 140.241 71.220,140.115 71.708,140.069 71.860 C 139.822 72.693,144.376 72.906,146.026 72.138 C 148.202 71.125,148.557 70.491,152.158 61.167 C 153.733 57.087,155.273 53.112,155.581 52.333 C 155.888 51.554,156.549 49.848,157.051 48.542 L 157.963 46.167 156.598 46.167 L 155.234 46.167 155.019 46.792 C 154.901 47.135,154.479 48.279,154.081 49.333 C 153.683 50.387,152.746 52.900,152.000 54.917 C 149.159 62.590,149.445 62.203,148.477 59.667 C 148.110 58.704,147.557 57.279,147.249 56.500 C 146.802 55.369,144.266 48.750,143.466 46.625 C 143.245 46.040,140.381 45.877,140.541 46.458 M171.909 48.450 C 173.608 49.308,174.349 50.503,174.592 52.777 L 174.705 53.833 169.436 53.833 L 164.167 53.833 164.168 53.292 C 164.181 49.558,168.613 46.785,171.909 48.450 M235.991 48.438 C 237.727 49.160,238.822 51.125,238.832 53.542 C 238.833 53.813,238.468 53.833,233.492 53.833 L 228.152 53.833 228.265 53.208 C 229.023 49.026,232.395 46.944,235.991 48.438 M106.129 56.958 C 106.000 60.890,104.621 62.726,101.631 62.948 C 98.859 63.154,97.500 62.074,97.500 59.667 C 97.500 57.379,98.452 56.557,101.750 55.996 C 103.323 55.728,105.010 55.237,105.417 54.930 C 106.159 54.367,106.210 54.511,106.129 56.958 M256.635 56.180 C 256.798 60.572,255.011 62.917,251.500 62.917 C 248.994 62.917,247.833 61.894,247.833 59.687 C 247.833 57.327,248.752 56.616,252.786 55.850 C 253.722 55.673,254.885 55.340,255.369 55.112 C 256.553 54.553,256.576 54.572,256.635 56.180 M322.230 61.232 C 321.053 61.761,320.744 63.436,321.654 64.346 C 322.531 65.223,324.405 64.972,324.909 63.910 C 325.755 62.126,324.044 60.415,322.230 61.232 M341.333 135.167 C 341.333 136.920,341.318 137.000,340.982 137.000 C 337.835 137.000,334.699 139.684,334.395 142.639 C 334.017 146.315,336.181 148.871,340.625 150.000 L 341.333 150.180 341.333 154.989 L 341.333 159.798 340.625 159.646 C 338.860 159.266,335.667 157.007,335.667 156.138 C 335.667 155.753,335.109 156.098,334.413 156.912 L 333.634 157.824 333.991 158.402 C 335.151 160.279,338.573 162.167,340.816 162.167 L 341.333 162.167 341.333 164.000 L 341.333 165.833 342.500 165.833 L 343.667 165.833 343.667 164.101 C 343.667 162.205,343.688 162.167,344.717 162.167 C 347.072 162.167,350.001 160.030,350.743 157.772 C 352.255 153.165,350.073 149.769,344.625 148.257 L 343.667 147.991 343.667 143.724 L 343.667 139.457 344.375 139.568 C 345.407 139.730,346.992 140.521,347.692 141.223 C 348.488 142.022,348.686 141.996,349.425 140.989 C 350.508 139.513,348.726 137.966,345.075 137.215 L 343.667 136.925 343.667 135.129 L 343.667 133.333 342.500 133.333 L 341.333 133.333 341.333 135.167 M371.833 135.081 C 371.833 136.350,371.775 136.860,371.625 136.901 C 371.510 136.932,370.876 137.078,370.214 137.225 C 362.546 138.931,362.894 147.883,370.708 149.923 L 371.833 150.216 371.833 154.914 C 371.833 160.274,371.931 159.871,370.706 159.551 C 368.917 159.084,367.417 158.083,366.493 156.739 C 365.841 155.792,365.699 155.808,364.773 156.932 L 364.006 157.865 364.501 158.584 C 365.771 160.431,368.605 161.934,371.333 162.208 C 371.746 162.250,371.750 162.267,371.797 164.042 L 371.845 165.833 373.000 165.833 L 374.155 165.833 374.203 164.042 L 374.250 162.250 375.167 162.147 C 379.077 161.705,381.496 159.038,381.496 155.167 C 381.497 151.730,379.642 149.593,375.660 148.444 L 374.250 148.037 374.206 143.769 C 374.155 138.879,374.009 139.236,375.800 139.866 C 376.420 140.083,377.270 140.572,377.871 141.057 C 379.025 141.986,379.064 141.982,379.929 140.814 L 380.499 140.044 380.175 139.631 C 379.330 138.558,376.913 137.382,374.964 137.096 L 374.178 136.981 374.131 135.199 L 374.083 133.417 372.958 133.367 L 371.833 133.318 371.833 135.081 M12.398 136.952 C 6.832 144.751,6.850 156.624,12.437 164.454 L 13.184 165.500 14.092 165.500 C 15.174 165.500,15.179 165.474,14.368 164.037 C 9.874 156.066,9.796 145.946,14.167 137.717 C 15.193 135.785,15.195 135.833,14.098 135.833 L 13.196 135.833 12.398 136.952 M63.333 136.006 C 63.333 136.101,63.705 136.873,64.159 137.720 C 68.361 145.561,68.453 155.266,64.401 163.167 C 63.116 165.672,63.127 165.500,64.246 165.500 L 65.158 165.500 66.010 164.292 C 68.854 160.261,69.886 156.692,69.903 150.833 C 69.919 144.844,68.915 141.316,65.989 137.082 L 65.125 135.833 64.229 135.833 C 63.722 135.833,63.333 135.908,63.333 136.006 M85.667 150.667 L 85.667 165.500 88.917 165.500 L 92.167 165.500 92.167 164.500 L 92.167 163.500 90.167 163.500 L 88.167 163.500 88.167 150.750 L 88.167 138.000 90.167 138.000 L 92.167 138.000 92.167 136.917 L 92.167 135.833 88.917 135.833 L 85.667 135.833 85.667 150.667 M152.667 136.917 L 152.667 138.000 154.667 138.000 L 156.667 138.000 156.667 150.750 L 156.667 163.500 154.667 163.500 L 152.667 163.500 152.667 164.500 L 152.667 165.500 155.917 165.500 L 159.167 165.500 159.167 150.667 L 159.167 135.833 155.917 135.833 L 152.667 135.833 152.667 136.917 M178.891 137.042 C 173.638 144.623,173.375 155.887,178.274 163.422 C 179.618 165.491,179.629 165.500,180.615 165.500 C 181.685 165.500,181.684 165.505,180.759 163.790 C 178.009 158.693,176.796 151.441,177.812 146.167 C 178.541 142.379,179.313 140.194,180.953 137.276 C 181.707 135.933,181.684 135.833,180.614 135.833 L 179.728 135.833 178.891 137.042 M224.087 135.994 C 224.027 136.091,224.239 136.601,224.559 137.127 C 229.042 144.509,229.264 155.131,225.106 163.246 C 224.544 164.344,224.058 165.300,224.028 165.371 C 223.774 165.960,225.853 165.447,226.377 164.792 C 232.118 157.606,232.298 145.161,226.776 137.167 L 225.912 135.917 225.054 135.867 C 224.575 135.839,224.148 135.895,224.087 135.994 M258.207 136.708 C 252.544 144.496,252.331 155.822,257.696 163.935 L 258.731 165.500 259.699 165.500 C 260.231 165.500,260.667 165.471,260.667 165.435 C 260.667 165.399,260.184 164.442,259.593 163.310 C 256.936 158.212,255.894 151.400,256.935 145.917 C 257.581 142.512,258.500 139.951,260.066 137.192 C 260.836 135.837,260.835 135.833,259.755 135.833 C 258.848 135.833,258.841 135.837,258.207 136.708 M302.333 136.006 C 302.333 136.101,302.705 136.873,303.159 137.720 C 307.367 145.573,307.460 155.257,303.402 163.167 C 302.116 165.672,302.127 165.500,303.246 165.500 L 304.158 165.500 305.010 164.292 C 307.902 160.193,308.920 156.607,308.903 150.583 C 308.886 144.707,307.894 141.285,304.989 137.082 L 304.125 135.833 303.229 135.833 C 302.722 135.833,302.333 135.908,302.333 136.006 M327.701 137.065 C 324.775 141.256,323.759 144.784,323.762 150.750 C 323.764 156.687,324.710 159.981,327.637 164.250 L 328.437 165.417 329.385 165.467 C 330.549 165.528,330.555 165.652,329.275 163.151 C 325.159 155.108,325.341 144.834,329.731 137.343 C 330.551 135.944,330.530 135.833,329.447 135.833 L 328.561 135.833 327.701 137.065 M385.000 135.958 C 384.999 136.027,385.481 137.021,386.069 138.167 C 390.179 146.168,389.932 158.044,385.526 164.302 C 384.796 165.339,384.861 165.523,385.942 165.467 L 386.912 165.417 387.780 164.167 C 393.145 156.438,393.095 144.738,387.663 137.042 L 386.811 135.833 385.905 135.833 C 385.407 135.833,385.000 135.890,385.000 135.958 M22.363 137.619 C 20.992 140.250,17.667 146.828,17.667 146.908 C 17.667 146.966,18.244 146.992,18.949 146.965 L 20.232 146.917 22.059 143.292 C 23.069 141.289,23.986 139.667,24.109 139.667 C 24.233 139.667,25.149 141.300,26.167 143.333 L 28.001 147.000 29.251 147.000 C 30.784 147.000,30.921 147.590,28.108 142.083 L 25.724 137.417 24.121 137.369 C 22.722 137.328,22.498 137.359,22.363 137.619 M50.141 142.169 L 47.698 147.000 49.015 147.000 L 50.332 147.000 52.167 143.333 C 53.176 141.317,54.096 139.667,54.212 139.667 C 54.328 139.667,55.245 141.317,56.250 143.333 L 58.077 147.000 59.372 147.000 C 60.084 147.000,60.667 146.969,60.667 146.931 C 60.667 146.892,60.415 146.386,60.107 145.806 C 59.800 145.225,58.709 143.081,57.683 141.042 L 55.818 137.333 54.201 137.336 L 52.583 137.339 50.141 142.169 M188.541 138.292 C 185.904 143.501,185.198 144.905,184.727 145.875 L 184.180 147.000 185.468 147.000 L 186.756 147.000 188.586 143.329 C 189.778 140.936,190.495 139.674,190.644 139.704 C 190.771 139.729,191.692 141.381,192.692 143.375 L 194.509 147.000 195.823 147.000 L 197.137 147.000 194.693 142.169 L 192.250 137.337 190.638 137.335 L 189.026 137.333 188.541 138.292 M212.397 139.208 C 211.880 140.240,210.792 142.376,209.979 143.957 C 209.165 145.537,208.500 146.868,208.500 146.915 C 208.500 146.962,209.083 147.000,209.795 147.000 L 211.089 147.000 212.917 143.333 C 213.922 141.317,214.839 139.667,214.955 139.667 C 215.070 139.667,215.991 141.317,217.000 143.333 L 218.835 147.000 220.084 147.000 C 220.771 147.000,221.333 146.953,221.333 146.895 C 221.333 146.837,220.456 145.056,219.383 142.937 C 218.311 140.817,217.242 138.690,217.008 138.209 L 216.583 137.334 214.960 137.334 L 213.336 137.333 212.397 139.208 M265.025 139.208 C 265.088 140.240,265.230 142.377,265.342 143.958 L 265.545 146.833 266.332 146.833 L 267.119 146.833 267.226 145.682 C 267.285 145.049,267.409 143.230,267.501 141.640 C 267.594 140.051,267.715 138.431,267.770 138.042 L 267.871 137.333 266.392 137.333 L 264.912 137.333 265.025 139.208 M271.222 137.875 C 271.273 138.173,271.358 139.167,271.411 140.083 C 271.465 141.000,271.592 142.894,271.694 144.292 L 271.880 146.833 272.690 146.833 C 273.409 146.833,273.500 146.793,273.500 146.474 C 273.500 146.276,273.609 144.607,273.743 142.765 C 273.876 140.924,274.012 138.948,274.045 138.375 L 274.105 137.333 272.617 137.333 L 271.130 137.333 271.222 137.875 M288.922 139.125 C 288.977 140.110,289.092 141.742,289.177 142.750 C 289.262 143.758,289.332 145.090,289.333 145.708 L 289.333 146.833 290.163 146.833 C 291.175 146.833,291.100 147.073,291.331 143.084 C 291.426 141.434,291.552 139.465,291.610 138.709 L 291.716 137.333 290.269 137.333 L 288.823 137.333 288.922 139.125 M295.226 138.875 C 295.281 139.723,295.410 141.767,295.514 143.417 C 295.746 147.121,295.649 146.833,296.661 146.833 L 297.500 146.833 297.501 145.708 C 297.501 145.090,297.571 143.758,297.656 142.750 C 297.742 141.742,297.856 140.110,297.911 139.125 L 298.011 137.333 296.569 137.333 L 295.127 137.333 295.226 138.875 M341.333 143.488 L 341.333 147.477 340.875 147.345 C 338.212 146.578,337.052 145.183,337.197 142.920 C 337.315 141.065,338.874 139.590,340.792 139.520 L 341.333 139.500 341.333 143.488 M371.795 143.458 L 371.750 147.417 371.333 147.358 C 366.370 146.654,366.336 139.579,371.295 139.508 L 371.839 139.500 371.795 143.458 M103.333 143.109 C 98.068 143.607,95.435 147.194,95.714 153.490 C 95.957 158.974,98.618 161.931,103.612 162.267 C 109.397 162.657,112.760 159.086,112.736 152.583 C 112.712 146.192,109.110 142.561,103.333 143.109 M139.167 143.174 C 134.585 143.739,132.134 147.004,132.104 152.583 C 132.069 159.071,135.435 162.637,141.250 162.273 C 146.781 161.927,149.813 157.675,149.143 151.202 C 148.554 145.503,144.796 142.480,139.167 143.174 M106.820 145.939 C 110.876 147.745,111.267 156.708,107.397 159.162 C 103.513 161.625,99.021 159.137,98.462 154.210 C 97.719 147.668,101.748 143.680,106.820 145.939 M142.901 145.787 C 147.575 147.257,147.770 157.318,143.167 159.484 C 141.006 160.500,137.848 159.931,136.377 158.260 C 134.376 155.987,134.289 149.817,136.222 147.303 C 137.537 145.594,140.296 144.968,142.901 145.787 M344.987 151.162 C 349.576 152.839,349.516 158.378,344.895 159.582 C 344.379 159.716,343.892 159.786,343.812 159.737 C 343.564 159.583,343.628 150.833,343.877 150.833 C 343.993 150.833,344.493 150.981,344.987 151.162 M376.101 151.505 C 380.274 153.524,379.393 158.732,374.708 159.743 L 374.167 159.860 374.167 155.329 L 374.167 150.797 374.625 150.905 C 374.877 150.964,375.541 151.234,376.101 151.505 M201.561 158.629 C 200.123 159.793,200.919 162.167,202.747 162.167 C 204.601 162.167,205.513 160.002,204.170 158.792 C 203.548 158.231,202.159 158.145,201.561 158.629 M280.417 158.527 C 278.733 159.453,279.476 162.167,281.414 162.167 C 283.279 162.167,284.195 160.002,282.841 158.792 C 282.282 158.292,281.082 158.161,280.417 158.527 M356.326 158.792 C 354.535 160.392,356.716 163.101,358.781 161.842 C 359.854 161.187,360.009 159.476,359.063 158.719 C 358.340 158.140,357.016 158.175,356.326 158.792 M31.833 164.917 L 31.833 166.000 39.250 166.000 L 46.667 166.000 46.667 164.917 L 46.667 163.833 39.250 163.833 L 31.833 163.833 31.833 164.917 M115.000 164.917 L 115.000 166.000 122.417 166.000 L 129.833 166.000 129.833 164.917 L 129.833 163.833 122.417 163.833 L 115.000 163.833 115.000 164.917 M0.000 199.833 C 0.000 199.944,66.778 200.000,200.000 200.000 C 333.222 200.000,400.000 199.944,400.000 199.833 C 400.000 199.722,333.222 199.667,200.000 199.667 C 66.778 199.667,0.000 199.722,0.000 199.833 " stroke="none" fill="#a6dc97" fill-rule="evenodd"></path><path id="path1" d="M0.000 99.833 L 0.000 199.667 200.000 199.667 L 400.000 199.667 400.000 99.833 L 400.000 0.000 200.000 0.000 L 0.000 0.000 0.000 99.833 M302.294 43.708 C 302.322 46.934,302.399 48.833,302.502 48.833 C 302.593 48.833,302.667 48.774,302.667 48.701 C 302.667 48.628,303.044 48.189,303.505 47.725 C 306.533 44.681,312.327 45.127,313.980 48.532 C 314.741 50.098,314.831 51.128,314.832 58.292 L 314.833 64.833 313.427 64.833 L 312.020 64.833 311.968 57.875 C 311.913 50.443,311.889 50.224,311.035 49.280 C 309.559 47.648,305.703 47.940,303.947 49.818 C 302.495 51.371,302.437 51.699,302.368 58.708 L 302.308 64.833 300.904 64.833 L 299.500 64.833 299.500 51.660 L 299.500 38.487 300.875 38.535 L 302.250 38.583 302.294 43.708 M85.833 40.085 C 87.363 40.552,89.833 42.238,89.833 42.816 C 89.833 42.983,88.489 44.742,88.311 44.808 C 88.225 44.839,87.828 44.563,87.427 44.194 C 84.278 41.292,78.065 41.734,77.057 44.932 C 76.148 47.814,77.644 49.284,82.787 50.564 C 88.992 52.107,90.750 53.748,90.750 58.000 C 90.750 60.444,90.428 61.379,89.093 62.806 C 85.590 66.551,76.552 65.721,73.684 61.391 L 73.177 60.625 73.946 59.646 C 74.855 58.489,75.132 58.442,75.752 59.336 C 78.881 63.851,87.228 63.507,87.780 58.840 C 88.158 55.654,86.954 54.586,81.397 53.172 C 75.914 51.777,73.994 49.968,73.976 46.180 C 73.961 42.829,76.044 40.503,79.667 39.824 C 80.870 39.599,84.783 39.764,85.833 40.085 M216.167 40.051 C 217.561 40.500,218.545 41.056,219.477 41.924 L 220.407 42.789 219.690 43.738 C 218.770 44.957,218.701 44.973,217.859 44.172 C 214.848 41.308,208.393 41.774,207.520 44.917 C 206.727 47.775,208.247 49.400,212.667 50.420 C 216.440 51.290,218.060 51.955,219.407 53.187 C 221.730 55.310,222.024 59.616,220.025 62.260 C 216.765 66.573,207.353 66.048,204.136 61.373 L 203.634 60.643 204.379 59.696 C 205.282 58.550,205.666 58.441,206.137 59.199 C 208.793 63.476,217.088 63.632,218.147 59.425 C 218.991 56.073,217.641 54.673,212.199 53.258 C 207.059 51.922,205.344 50.686,204.560 47.750 C 203.551 43.975,205.984 40.612,210.333 39.771 C 211.179 39.607,215.419 39.811,216.167 40.051 M324.500 48.333 L 324.500 56.667 323.083 56.667 L 321.667 56.667 321.667 48.333 L 321.667 40.000 323.083 40.000 L 324.500 40.000 324.500 48.333 M104.094 45.841 C 105.680 46.120,106.750 46.623,107.507 47.444 C 108.760 48.803,108.739 48.667,108.833 55.723 L 108.917 62.030 109.325 62.360 C 109.628 62.605,109.927 62.677,110.479 62.637 C 111.290 62.579,111.277 62.563,111.554 63.968 C 111.947 65.966,107.290 65.109,106.583 63.053 C 106.303 62.239,106.169 62.253,105.473 63.167 C 103.646 65.566,98.557 65.890,96.196 63.757 C 94.066 61.833,94.040 57.691,96.146 55.788 C 97.232 54.807,98.497 54.333,101.833 53.656 C 105.140 52.985,105.917 52.432,105.917 50.750 C 105.917 47.614,100.690 47.191,97.822 50.095 C 96.711 51.220,96.702 51.220,95.837 49.986 L 95.126 48.972 95.999 48.152 C 98.005 46.269,101.256 45.341,104.094 45.841 M171.320 45.854 C 174.120 46.334,175.872 47.731,176.832 50.250 C 177.313 51.513,177.545 55.764,177.147 56.016 C 177.020 56.096,174.038 56.163,170.519 56.164 L 164.121 56.167 164.232 57.258 C 164.565 60.505,166.442 62.431,169.467 62.631 C 171.763 62.783,173.693 61.951,174.588 60.424 C 174.832 60.007,175.096 59.667,175.175 59.667 C 175.299 59.667,176.968 60.594,177.147 60.762 C 177.316 60.920,176.517 62.182,175.716 63.021 C 172.785 66.094,166.450 65.918,163.377 62.677 C 160.746 59.902,160.358 52.912,162.641 49.399 C 164.485 46.560,167.721 45.239,171.320 45.854 M235.385 45.852 C 239.482 46.484,241.478 49.208,241.494 54.191 C 241.501 56.392,242.283 56.167,234.630 56.167 L 228.288 56.167 228.376 57.208 C 228.670 60.659,230.769 62.667,234.083 62.667 C 236.123 62.667,237.783 61.878,238.679 60.481 C 238.966 60.033,239.241 59.667,239.289 59.667 C 239.362 59.667,241.131 60.630,241.308 60.766 C 241.764 61.117,239.287 63.811,237.941 64.427 C 233.113 66.637,227.303 64.370,225.868 59.714 C 223.341 51.518,228.013 44.714,235.385 45.852 M254.680 45.904 C 256.821 46.286,257.913 47.027,258.707 48.640 L 259.250 49.742 259.301 55.829 C 259.361 62.911,259.333 62.788,260.863 62.609 L 261.643 62.519 261.822 63.351 C 262.079 64.551,262.065 64.594,261.356 64.807 C 259.425 65.385,257.590 64.683,257.048 63.158 C 256.695 62.163,256.564 62.151,255.912 63.049 C 254.799 64.581,252.963 65.272,250.417 65.116 C 246.729 64.890,245.081 63.205,245.086 59.667 C 245.090 56.115,246.562 54.824,251.824 53.752 C 255.018 53.101,256.042 52.583,256.343 51.464 C 257.305 47.892,251.470 46.929,248.179 50.116 C 247.058 51.202,247.060 51.202,246.292 50.096 C 245.503 48.959,245.494 49.025,246.588 48.025 C 248.682 46.111,251.582 45.351,254.680 45.904 M289.726 45.912 C 291.327 46.197,292.519 46.764,293.468 47.690 C 294.325 48.526,295.125 49.818,294.883 49.975 C 294.790 50.034,294.280 50.383,293.748 50.750 C 293.143 51.167,292.756 51.343,292.714 51.219 C 291.666 48.167,286.370 47.288,283.902 49.756 C 281.400 52.258,281.293 58.281,283.705 60.925 C 286.201 63.661,290.988 63.061,292.505 59.822 C 292.717 59.370,293.000 59.000,293.135 59.000 C 293.329 59.000,294.857 59.834,295.149 60.100 C 295.609 60.518,293.001 63.728,291.708 64.335 C 286.292 66.881,280.445 63.953,279.235 58.089 C 277.655 50.433,282.639 44.648,289.726 45.912 M116.625 48.417 C 116.927 49.700,117.246 51.087,117.334 51.500 C 118.275 55.884,119.619 61.402,119.757 61.447 C 119.915 61.499,120.518 59.466,123.376 49.250 L 124.262 46.083 125.751 46.083 L 127.240 46.083 129.482 53.792 C 130.715 58.031,131.783 61.500,131.855 61.500 C 131.927 61.500,132.063 61.219,132.156 60.875 C 132.309 60.311,132.465 59.633,133.273 56.000 C 133.659 54.269,133.822 53.548,134.000 52.792 C 134.092 52.402,134.319 51.371,134.506 50.500 C 134.693 49.629,134.959 48.429,135.098 47.833 C 135.237 47.237,135.385 46.581,135.428 46.375 C 135.501 46.024,135.591 46.000,136.837 46.000 C 138.418 46.000,138.350 45.748,137.589 48.781 C 137.033 50.996,136.535 53.046,135.248 58.417 C 134.051 63.411,133.826 64.326,133.729 64.577 C 133.649 64.785,133.299 64.833,131.857 64.832 L 130.083 64.831 129.221 61.874 C 125.952 50.658,125.793 50.151,125.597 50.347 C 125.541 50.404,122.835 59.844,121.744 63.792 L 121.456 64.833 119.667 64.833 L 117.877 64.833 116.775 60.375 C 114.808 52.419,113.333 46.324,113.333 46.153 C 113.333 46.052,113.869 46.005,114.705 46.035 L 116.077 46.083 116.625 48.417 M143.445 46.292 C 143.550 46.592,147.562 57.049,148.627 59.796 C 148.956 60.646,149.295 61.318,149.379 61.290 C 149.463 61.262,150.076 59.779,150.742 57.995 C 151.407 56.210,152.685 52.781,153.582 50.375 L 155.213 46.000 156.607 46.000 C 158.255 46.000,158.207 45.794,157.180 48.456 C 153.248 58.655,151.365 63.549,150.718 65.250 C 148.625 70.749,147.428 72.192,144.561 72.677 C 143.408 72.871,141.334 72.724,140.479 72.386 L 139.875 72.147 140.159 71.032 C 140.477 69.786,140.391 69.826,142.064 70.162 C 144.696 70.690,146.080 69.780,147.255 66.747 L 147.846 65.223 147.490 64.403 C 147.031 63.344,140.484 46.676,140.376 46.292 C 140.303 46.029,140.447 46.000,141.819 46.000 C 143.121 46.000,143.359 46.043,143.445 46.292 M184.965 47.542 C 185.018 49.137,185.106 49.272,185.570 48.458 C 186.537 46.764,187.974 46.000,190.195 46.000 C 192.758 46.000,193.219 46.326,192.756 47.810 C 192.345 49.128,192.270 49.193,191.534 48.886 C 189.900 48.203,187.507 48.733,186.476 50.006 C 185.330 51.422,185.256 51.925,185.199 58.708 L 185.148 64.833 183.741 64.833 L 182.333 64.833 182.333 55.410 L 182.333 45.986 183.625 46.035 L 184.917 46.083 184.965 47.542 M268.465 47.542 C 268.514 49.045,268.641 49.305,268.970 48.584 C 269.908 46.525,273.065 45.407,275.706 46.198 C 276.542 46.448,276.592 46.597,276.249 47.783 C 275.861 49.122,275.800 49.174,274.955 48.882 C 273.200 48.276,271.084 48.710,270.081 49.881 C 268.800 51.378,268.500 53.365,268.500 60.375 L 268.500 64.833 267.083 64.833 L 265.667 64.833 265.667 55.528 C 265.667 50.410,265.720 46.169,265.784 46.105 C 265.849 46.040,266.468 46.009,267.159 46.035 L 268.417 46.083 268.465 47.542 M168.083 48.313 C 165.914 48.889,164.513 50.714,164.293 53.250 L 164.250 53.750 169.399 53.794 L 174.549 53.838 174.454 52.711 C 174.168 49.319,171.425 47.425,168.083 48.313 M232.250 48.325 C 230.277 48.818,229.189 49.996,228.596 52.284 C 228.153 53.996,227.636 53.833,233.524 53.833 L 238.715 53.833 238.615 52.792 C 238.276 49.264,235.708 47.463,232.250 48.325 M105.101 55.197 C 104.462 55.520,103.691 55.722,101.098 56.244 C 98.216 56.825,97.256 57.951,97.587 60.360 C 97.974 63.176,102.351 63.870,104.607 61.473 C 105.701 60.311,106.167 58.774,106.167 56.325 C 106.167 54.670,106.160 54.663,105.101 55.197 M255.590 55.173 C 255.106 55.482,254.094 55.744,251.417 56.253 C 248.909 56.731,247.971 57.660,247.971 59.667 C 247.971 62.080,249.796 63.352,252.497 62.821 C 255.194 62.290,256.500 60.260,256.500 56.599 C 256.500 54.673,256.463 54.615,255.590 55.173 M324.344 61.283 C 326.024 62.275,325.173 65.000,323.184 65.000 C 321.399 65.000,320.428 63.357,321.335 61.869 C 321.871 60.989,323.357 60.700,324.344 61.283 M343.833 135.089 C 343.833 136.351,343.892 136.860,344.042 136.901 C 344.156 136.932,344.734 137.048,345.325 137.159 C 346.831 137.441,348.339 138.169,349.326 139.092 C 350.337 140.038,350.329 139.935,349.476 141.076 C 348.654 142.176,348.584 142.187,347.706 141.352 C 346.895 140.580,345.451 139.840,344.510 139.714 L 343.833 139.623 343.833 143.787 L 343.833 147.952 344.958 148.225 C 350.248 149.508,352.615 153.826,350.570 158.462 C 349.685 160.466,346.712 162.323,344.375 162.331 L 343.833 162.333 343.833 164.167 L 343.833 166.000 342.583 166.000 L 341.333 166.000 341.333 164.208 L 341.332 162.417 339.888 162.137 C 337.436 161.661,335.176 160.293,333.986 158.563 L 333.476 157.822 334.338 156.828 C 335.271 155.751,335.549 155.635,335.850 156.198 C 336.660 157.711,339.676 159.667,341.200 159.667 C 341.276 159.667,341.319 157.558,341.294 154.981 L 341.250 150.296 340.000 149.930 C 336.553 148.921,334.802 147.182,334.344 144.315 C 333.740 140.536,336.216 137.659,340.708 136.921 L 341.333 136.818 341.333 135.076 L 341.333 133.333 342.583 133.333 L 343.833 133.333 343.833 135.089 M374.203 135.114 L 374.250 136.895 375.467 137.100 C 377.466 137.436,380.500 139.204,380.500 140.033 C 380.500 140.309,379.186 142.000,378.972 142.000 C 378.870 142.000,378.455 141.693,378.048 141.318 C 377.211 140.547,375.795 139.841,374.822 139.711 L 374.167 139.623 374.167 143.804 L 374.167 147.985 374.792 148.098 C 380.337 149.106,383.134 153.806,380.958 158.463 C 380.002 160.510,377.074 162.323,374.708 162.331 L 374.167 162.333 374.167 164.167 L 374.167 166.000 372.917 166.000 L 371.667 166.000 371.667 164.203 L 371.667 162.406 370.508 162.191 C 368.038 161.735,365.869 160.528,364.675 158.948 C 363.840 157.842,363.838 157.896,364.759 156.765 C 365.691 155.621,365.792 155.617,366.602 156.702 C 367.690 158.159,369.301 159.183,371.128 159.577 L 371.672 159.694 371.628 154.987 L 371.583 150.280 370.528 149.983 C 366.518 148.852,364.750 146.818,364.750 143.333 C 364.750 139.747,367.699 136.925,371.542 136.836 C 371.610 136.835,371.667 136.046,371.667 135.083 L 371.667 133.333 372.911 133.333 L 374.155 133.333 374.203 135.114 M15.082 135.998 C 15.138 136.088,14.888 136.670,14.526 137.290 C 12.056 141.519,11.250 144.810,11.250 150.667 C 11.250 156.436,11.837 158.994,14.187 163.466 C 15.313 165.609,15.310 165.667,14.073 165.667 L 13.165 165.667 12.338 164.542 C 6.512 156.616,6.701 144.612,12.783 136.256 C 13.102 135.819,14.850 135.623,15.082 135.998 M66.283 137.375 C 71.665 145.558,71.504 156.729,65.890 164.625 L 65.150 165.667 64.251 165.667 C 63.026 165.667,63.018 165.577,64.068 163.618 C 68.465 155.421,68.172 143.405,63.408 136.603 C 62.959 135.962,63.094 135.833,64.218 135.833 L 65.269 135.833 66.283 137.375 M92.299 136.958 L 92.250 138.083 90.208 138.130 L 88.167 138.177 88.167 150.755 L 88.167 163.333 90.250 163.333 L 92.333 163.333 92.333 164.500 L 92.333 165.667 88.917 165.667 L 85.500 165.667 85.500 150.750 L 85.500 135.833 88.924 135.833 L 92.349 135.833 92.299 136.958 M159.333 150.750 L 159.333 165.667 155.917 165.667 L 152.500 165.667 152.500 164.500 L 152.500 163.333 154.583 163.333 L 156.667 163.333 156.667 150.755 L 156.667 138.177 154.625 138.130 L 152.583 138.083 152.534 136.958 L 152.485 135.833 155.909 135.833 L 159.333 135.833 159.333 150.750 M181.667 135.982 C 181.667 136.064,181.185 137.058,180.596 138.190 C 176.467 146.135,176.652 156.377,181.065 164.141 C 181.892 165.595,181.873 165.667,180.671 165.667 L 179.676 165.667 178.768 164.375 C 173.149 156.388,173.387 143.331,179.280 136.328 C 179.695 135.834,181.667 135.548,181.667 135.982 M226.867 137.083 C 232.253 144.905,232.288 156.099,226.951 164.125 L 225.926 165.667 224.963 165.667 C 223.814 165.667,223.725 165.428,224.446 164.288 C 228.904 157.249,229.159 146.440,225.060 138.316 C 223.747 135.714,223.748 135.805,225.032 135.867 L 226.063 135.917 226.867 137.083 M260.708 135.930 C 260.761 135.983,260.366 136.865,259.829 137.888 C 255.526 146.099,255.614 156.161,260.059 164.009 C 260.451 164.702,260.742 165.358,260.705 165.467 C 260.594 165.800,258.832 165.724,258.559 165.375 C 252.476 157.590,252.093 145.819,257.646 137.375 L 258.661 135.833 259.636 135.833 C 260.172 135.833,260.655 135.877,260.708 135.930 M305.283 137.375 C 310.682 145.584,310.522 156.705,304.890 164.625 L 304.150 165.667 303.236 165.667 C 302.012 165.667,302.000 165.536,303.056 163.626 C 307.465 155.646,307.171 143.404,302.408 136.603 C 301.959 135.962,302.094 135.833,303.218 135.833 L 304.269 135.833 305.283 137.375 M330.500 135.986 C 330.500 136.070,330.054 136.989,329.508 138.028 C 325.334 145.976,325.431 156.353,329.749 163.894 C 330.737 165.619,330.730 165.667,329.505 165.667 L 328.510 165.667 327.601 164.375 C 322.187 156.680,322.091 145.370,327.371 137.385 L 328.398 135.833 329.449 135.833 C 330.027 135.833,330.500 135.902,330.500 135.986 M387.916 137.242 C 393.330 145.378,393.220 156.972,387.657 164.547 L 386.835 165.667 385.935 165.667 C 384.747 165.667,384.728 165.533,385.670 163.805 C 390.038 155.793,390.068 145.826,385.749 137.728 C 384.725 135.809,384.722 135.833,386.017 135.833 L 386.979 135.833 387.916 137.242 M25.892 137.542 C 26.155 137.966,30.667 146.846,30.667 146.939 C 30.667 146.973,30.033 147.000,29.257 147.000 L 27.848 147.000 26.051 143.417 C 25.062 141.446,24.176 139.833,24.083 139.833 C 23.990 139.833,23.108 141.446,22.124 143.417 L 20.334 147.000 18.914 147.000 L 17.493 147.000 19.567 142.875 C 20.708 140.606,21.841 138.394,22.085 137.958 L 22.528 137.167 24.094 137.167 C 25.537 137.167,25.677 137.196,25.892 137.542 M58.355 142.132 L 60.854 147.013 59.410 146.965 L 57.965 146.917 56.191 143.425 C 55.215 141.505,54.325 139.906,54.214 139.872 C 54.092 139.834,53.298 141.237,52.216 143.405 L 50.420 147.000 49.043 147.000 C 48.286 147.000,47.667 146.953,47.667 146.896 C 47.667 146.839,48.773 144.625,50.125 141.977 L 52.583 137.162 54.220 137.206 L 55.856 137.250 58.355 142.132 M194.713 141.977 C 196.062 144.623,197.167 146.836,197.167 146.894 C 197.167 146.952,196.547 147.000,195.790 147.000 L 194.413 147.000 192.618 143.405 C 191.566 141.299,190.741 139.836,190.627 139.874 C 190.519 139.910,189.631 141.510,188.653 143.428 L 186.876 146.917 185.422 146.965 L 183.969 147.013 185.965 143.132 C 187.062 140.997,188.195 138.781,188.482 138.208 L 189.005 137.167 190.632 137.167 L 192.259 137.167 194.713 141.977 M216.622 137.375 C 216.829 137.640,221.500 146.757,221.500 146.896 C 221.500 146.953,220.881 147.000,220.125 146.999 L 218.750 146.999 216.932 143.416 C 215.932 141.446,215.031 139.833,214.930 139.833 C 214.829 139.833,213.941 141.446,212.957 143.417 L 211.168 147.000 209.737 147.000 L 208.307 147.000 210.754 142.208 C 212.100 139.573,213.235 137.360,213.277 137.292 C 213.412 137.070,216.443 137.146,216.622 137.375 M267.774 139.125 C 267.714 140.202,267.575 142.377,267.465 143.958 L 267.265 146.833 266.335 146.833 L 265.405 146.833 265.115 142.375 C 264.955 139.923,264.827 137.748,264.829 137.542 C 264.833 137.180,264.889 137.167,266.358 137.167 L 267.882 137.167 267.774 139.125 M274.163 137.958 C 274.161 138.394,274.051 140.250,273.918 142.083 C 273.785 143.917,273.674 145.735,273.671 146.125 L 273.667 146.833 272.701 146.833 L 271.735 146.833 271.529 143.625 C 271.416 141.860,271.277 139.685,271.221 138.792 L 271.119 137.167 272.643 137.167 L 274.167 137.167 274.163 137.958 M291.765 138.125 C 291.709 138.652,291.588 140.396,291.496 142.000 C 291.404 143.604,291.283 145.348,291.226 145.875 L 291.124 146.833 290.240 146.833 L 289.357 146.833 289.269 145.958 C 289.221 145.477,289.101 143.696,289.003 142.000 C 288.905 140.304,288.789 138.574,288.744 138.155 C 288.639 137.165,288.636 137.167,290.377 137.167 L 291.866 137.167 291.765 138.125 M298.045 138.167 C 297.977 139.816,297.653 145.063,297.563 145.958 L 297.476 146.833 296.583 146.833 L 295.691 146.833 295.600 145.958 C 295.550 145.477,295.431 143.808,295.335 142.250 C 295.239 140.692,295.120 138.908,295.070 138.285 L 294.979 137.154 296.531 137.202 L 298.083 137.250 298.045 138.167 M340.358 139.679 C 335.925 140.551,336.306 146.102,340.875 147.227 L 341.333 147.340 341.333 143.420 C 341.333 141.264,341.277 139.508,341.208 139.518 C 341.140 139.528,340.757 139.601,340.358 139.679 M370.833 139.659 C 366.770 140.500,366.450 145.522,370.372 146.909 C 370.855 147.080,371.344 147.253,371.458 147.294 C 371.621 147.353,371.667 146.511,371.667 143.434 C 371.667 141.271,371.610 139.509,371.542 139.519 C 371.473 139.530,371.154 139.593,370.833 139.659 M106.977 143.338 C 111.177 144.502,113.458 148.727,112.846 154.212 C 112.259 159.474,109.229 162.384,104.336 162.384 C 98.647 162.384,95.583 158.983,95.583 152.667 C 95.583 145.490,100.429 141.524,106.977 143.338 M143.145 143.242 C 147.259 144.337,149.258 147.483,149.241 152.833 C 149.221 159.047,146.148 162.404,140.492 162.388 C 135.075 162.373,131.984 158.838,131.974 152.648 C 131.964 145.687,136.855 141.568,143.145 143.242 M102.622 145.670 C 99.999 146.335,98.737 148.299,98.546 152.012 C 98.275 157.295,100.085 159.750,104.250 159.750 C 107.756 159.750,109.325 158.189,109.860 154.170 C 110.638 148.326,107.356 144.472,102.622 145.670 M139.024 145.669 C 135.999 146.307,134.417 149.687,134.995 154.277 C 135.485 158.168,137.100 159.750,140.583 159.750 C 144.723 159.750,146.553 157.260,146.294 151.980 C 146.057 147.156,143.303 144.765,139.024 145.669 M343.833 155.352 L 343.833 159.704 344.458 159.587 C 348.992 158.744,349.654 153.409,345.461 151.508 C 343.692 150.706,343.833 150.372,343.833 155.352 M374.167 155.333 C 374.167 158.561,374.217 159.667,374.364 159.667 C 379.033 159.667,380.124 153.186,375.750 151.435 C 374.025 150.744,374.167 150.396,374.167 155.333 M203.948 158.492 C 204.978 159.120,205.230 160.690,204.437 161.546 C 203.245 162.831,200.942 162.214,200.719 160.549 C 200.478 158.757,202.387 157.540,203.948 158.492 M282.635 158.504 C 283.317 158.920,283.717 159.810,283.572 160.587 C 283.218 162.470,280.457 162.856,279.572 161.145 C 278.605 159.274,280.797 157.384,282.635 158.504 M358.774 158.439 C 360.012 159.027,360.194 160.912,359.099 161.820 C 358.349 162.443,356.582 162.286,356.000 161.545 C 354.580 159.740,356.644 157.428,358.774 158.439 M46.667 164.833 L 46.667 166.000 39.167 166.000 L 31.667 166.000 31.667 164.833 L 31.667 163.667 39.167 163.667 L 46.667 163.667 46.667 164.833 M130.000 164.833 L 130.000 166.000 122.417 166.000 L 114.833 166.000 114.833 164.944 C 114.833 164.364,114.883 163.839,114.944 163.778 C 115.006 163.717,118.418 163.667,122.528 163.667 L 130.000 163.667 130.000 164.833 " stroke="none" fill="#24243c" fill-rule="evenodd"></path><path id="path2" d="M321.743 40.208 C 321.699 40.323,321.683 44.054,321.707 48.500 L 321.750 56.583 323.083 56.593 L 324.417 56.604 323.125 56.545 L 321.833 56.487 321.833 48.333 L 321.833 40.180 323.208 40.124 L 324.583 40.068 323.203 40.034 C 322.226 40.010,321.800 40.061,321.743 40.208 M219.500 42.083 C 219.811 42.404,220.103 42.667,220.149 42.667 C 220.195 42.667,219.978 42.404,219.667 42.083 C 219.356 41.762,219.064 41.500,219.018 41.500 C 218.972 41.500,219.189 41.762,219.500 42.083 M87.000 43.719 C 87.000 43.748,87.244 43.991,87.542 44.260 L 88.083 44.750 87.594 44.208 C 87.138 43.703,87.000 43.590,87.000 43.719 M184.893 47.667 C 184.893 48.538,184.922 48.894,184.956 48.458 C 184.990 48.023,184.990 47.310,184.956 46.875 C 184.922 46.440,184.893 46.796,184.893 47.667 M169.292 48.118 C 169.498 48.157,169.835 48.157,170.042 48.118 C 170.248 48.078,170.079 48.045,169.667 48.045 C 169.254 48.045,169.085 48.078,169.292 48.118 M233.460 48.118 C 233.668 48.158,233.968 48.156,234.127 48.115 C 234.286 48.073,234.117 48.040,233.750 48.042 C 233.383 48.044,233.253 48.078,233.460 48.118 M241.394 54.250 C 241.395 55.167,241.423 55.520,241.456 55.036 C 241.490 54.552,241.490 53.802,241.456 53.369 C 241.421 52.937,241.394 53.333,241.394 54.250 M312.075 58.833 C 312.075 62.179,312.098 63.548,312.125 61.875 C 312.152 60.202,312.152 57.465,312.125 55.792 C 312.098 54.119,312.075 55.487,312.075 58.833 M161.209 54.250 C 161.211 54.617,161.245 54.747,161.285 54.540 C 161.324 54.332,161.323 54.032,161.281 53.873 C 161.239 53.714,161.207 53.883,161.209 54.250 M281.872 54.500 C 281.872 54.821,281.906 54.952,281.948 54.792 C 281.990 54.631,281.990 54.369,281.948 54.208 C 281.906 54.048,281.872 54.179,281.872 54.500 M279.058 55.500 C 279.058 56.279,279.087 56.598,279.122 56.208 C 279.157 55.819,279.157 55.181,279.122 54.792 C 279.087 54.402,279.058 54.721,279.058 55.500 M281.875 56.250 C 281.877 56.617,281.911 56.747,281.951 56.540 C 281.991 56.332,281.990 56.032,281.948 55.873 C 281.906 55.714,281.874 55.883,281.875 56.250 M161.212 56.667 C 161.212 57.079,161.245 57.248,161.284 57.042 C 161.324 56.835,161.324 56.498,161.284 56.292 C 161.245 56.085,161.212 56.254,161.212 56.667 M167.281 56.125 C 169.039 56.152,171.964 56.152,173.781 56.125 C 175.597 56.098,174.158 56.076,170.583 56.076 C 167.008 56.076,165.522 56.098,167.281 56.125 M231.281 56.125 C 233.039 56.152,235.964 56.152,237.781 56.125 C 239.597 56.098,238.158 56.076,234.583 56.076 C 231.008 56.076,229.522 56.098,231.281 56.125 M218.375 58.083 C 218.377 58.450,218.411 58.580,218.451 58.373 C 218.491 58.166,218.490 57.866,218.448 57.706 C 218.406 57.547,218.374 57.717,218.375 58.083 M87.872 58.167 C 87.872 58.487,87.906 58.619,87.948 58.458 C 87.990 58.298,87.990 58.035,87.948 57.875 C 87.906 57.715,87.872 57.846,87.872 58.167 M76.417 60.333 C 76.775 60.700,77.105 61.000,77.151 61.000 C 77.197 61.000,76.941 60.700,76.583 60.333 C 76.225 59.967,75.895 59.667,75.849 59.667 C 75.803 59.667,76.059 59.967,76.417 60.333 M88.906 62.875 L 88.417 63.417 88.958 62.927 C 89.256 62.658,89.500 62.414,89.500 62.385 C 89.500 62.257,89.362 62.370,88.906 62.875 M82.044 62.620 C 82.297 62.658,82.672 62.657,82.877 62.617 C 83.082 62.578,82.875 62.546,82.417 62.548 C 81.958 62.549,81.791 62.581,82.044 62.620 M212.544 62.620 C 212.797 62.658,213.172 62.657,213.377 62.617 C 213.582 62.578,213.375 62.546,212.917 62.548 C 212.458 62.549,212.291 62.581,212.544 62.620 M239.740 63.042 L 239.250 63.583 239.792 63.094 C 240.090 62.825,240.333 62.581,240.333 62.552 C 240.333 62.423,240.196 62.537,239.740 63.042 M321.039 63.000 C 321.039 63.321,321.073 63.452,321.115 63.292 C 321.157 63.131,321.157 62.869,321.115 62.708 C 321.073 62.548,321.039 62.679,321.039 63.000 M169.544 62.786 C 169.797 62.825,170.172 62.824,170.377 62.784 C 170.582 62.744,170.375 62.713,169.917 62.714 C 169.458 62.716,169.291 62.748,169.544 62.786 M233.711 62.786 C 233.964 62.825,234.339 62.824,234.544 62.784 C 234.749 62.744,234.542 62.713,234.083 62.714 C 233.625 62.716,233.457 62.748,233.711 62.786 M287.377 62.786 C 287.631 62.825,288.006 62.824,288.211 62.784 C 288.416 62.744,288.208 62.713,287.750 62.714 C 287.292 62.716,287.124 62.748,287.377 62.786 M109.460 64.951 C 109.668 64.991,109.968 64.990,110.127 64.948 C 110.286 64.906,110.117 64.874,109.750 64.875 C 109.383 64.877,109.253 64.911,109.460 64.951 M259.794 64.951 C 260.001 64.991,260.301 64.990,260.460 64.948 C 260.620 64.906,260.450 64.874,260.083 64.875 C 259.717 64.877,259.586 64.911,259.794 64.951 M322.794 64.951 C 323.001 64.991,323.301 64.990,323.460 64.948 C 323.620 64.906,323.450 64.874,323.083 64.875 C 322.717 64.877,322.586 64.911,322.794 64.951 M371.729 135.083 C 371.729 136.092,371.757 136.483,371.790 135.952 C 371.823 135.422,371.823 134.597,371.789 134.119 C 371.756 133.641,371.729 134.075,371.729 135.083 M343.729 135.250 C 343.729 136.258,343.757 136.649,343.790 136.119 C 343.823 135.588,343.823 134.763,343.789 134.286 C 343.756 133.808,343.729 134.242,343.729 135.250 M85.580 150.667 C 85.580 158.871,85.600 162.227,85.625 158.125 C 85.650 154.023,85.650 147.310,85.625 143.208 C 85.600 139.106,85.580 142.462,85.580 150.667 M152.555 136.917 C 152.555 137.558,152.586 137.800,152.622 137.455 C 152.658 137.109,152.657 136.584,152.620 136.288 C 152.583 135.992,152.554 136.275,152.555 136.917 M159.246 150.667 C 159.246 158.871,159.267 162.227,159.292 158.125 C 159.316 154.023,159.316 147.310,159.292 143.208 C 159.267 139.106,159.246 142.462,159.246 150.667 M92.220 137.000 C 92.220 137.596,92.250 137.840,92.287 137.542 C 92.324 137.244,92.324 136.756,92.287 136.458 C 92.250 136.160,92.220 136.404,92.220 137.000 M288.879 139.333 C 288.879 139.746,288.911 139.915,288.951 139.708 C 288.991 139.502,288.991 139.165,288.951 138.958 C 288.911 138.752,288.879 138.921,288.879 139.333 M343.739 143.750 C 343.739 146.133,343.763 147.085,343.791 145.865 C 343.820 144.645,343.820 142.695,343.791 141.532 C 343.763 140.368,343.739 141.367,343.739 143.750 M371.666 143.450 C 371.621 145.669,371.641 147.426,371.711 147.355 C 371.782 147.285,371.819 145.470,371.795 143.322 L 371.750 139.417 371.666 143.450 M271.372 140.500 C 271.372 140.821,271.406 140.952,271.448 140.792 C 271.490 140.631,271.490 140.369,271.448 140.208 C 271.406 140.048,271.372 140.179,271.372 140.500 M265.039 140.667 C 265.039 140.987,265.073 141.119,265.115 140.958 C 265.157 140.798,265.157 140.535,265.115 140.375 C 265.073 140.215,265.039 140.346,265.039 140.667 M267.545 140.833 C 267.545 141.246,267.578 141.415,267.618 141.208 C 267.657 141.002,267.657 140.665,267.618 140.458 C 267.578 140.252,267.545 140.421,267.545 140.833 M378.240 141.458 C 378.737 142.009,379.066 142.132,379.249 141.835 C 379.308 141.739,379.238 141.714,379.082 141.774 C 378.915 141.838,378.612 141.695,378.282 141.397 L 377.750 140.917 378.240 141.458 M291.375 141.917 C 291.377 142.283,291.411 142.414,291.451 142.206 C 291.491 141.999,291.490 141.699,291.448 141.540 C 291.406 141.380,291.374 141.550,291.375 141.917 M103.042 143.115 C 103.202 143.157,103.465 143.157,103.625 143.115 C 103.785 143.073,103.654 143.039,103.333 143.039 C 103.013 143.039,102.881 143.073,103.042 143.115 M104.875 143.115 C 105.035 143.157,105.298 143.157,105.458 143.115 C 105.619 143.073,105.487 143.039,105.167 143.039 C 104.846 143.039,104.715 143.073,104.875 143.115 M139.375 143.115 C 139.535 143.157,139.798 143.157,139.958 143.115 C 140.119 143.073,139.987 143.039,139.667 143.039 C 139.346 143.039,139.215 143.073,139.375 143.115 M141.208 143.115 C 141.369 143.157,141.631 143.157,141.792 143.115 C 141.952 143.073,141.821 143.039,141.500 143.039 C 141.179 143.039,141.048 143.073,141.208 143.115 M289.205 144.333 C 289.205 144.654,289.240 144.785,289.282 144.625 C 289.323 144.465,289.323 144.202,289.282 144.042 C 289.240 143.881,289.205 144.012,289.205 144.333 M109.833 144.885 C 109.833 144.914,110.077 145.158,110.375 145.427 L 110.917 145.917 110.427 145.375 C 109.971 144.870,109.833 144.757,109.833 144.885 M134.406 145.375 L 133.917 145.917 134.458 145.427 C 134.756 145.158,135.000 144.914,135.000 144.885 C 135.000 144.757,134.862 144.870,134.406 145.375 M265.375 145.583 C 265.377 145.950,265.411 146.080,265.451 145.873 C 265.491 145.666,265.490 145.366,265.448 145.206 C 265.406 145.047,265.374 145.217,265.375 145.583 M273.542 145.750 C 273.544 146.117,273.578 146.247,273.618 146.040 C 273.658 145.832,273.656 145.532,273.615 145.373 C 273.573 145.214,273.540 145.383,273.542 145.750 M267.205 145.833 C 267.205 146.154,267.240 146.285,267.282 146.125 C 267.323 145.965,267.323 145.702,267.282 145.542 C 267.240 145.381,267.205 145.512,267.205 145.833 M388.872 148.000 C 388.872 148.321,388.906 148.452,388.948 148.292 C 388.990 148.131,388.990 147.869,388.948 147.708 C 388.906 147.548,388.872 147.679,388.872 148.000 M11.039 148.333 C 11.039 148.654,11.073 148.785,11.115 148.625 C 11.157 148.465,11.157 148.202,11.115 148.042 C 11.073 147.881,11.039 148.012,11.039 148.333 M391.731 150.667 C 391.731 151.813,391.758 152.281,391.790 151.708 C 391.823 151.135,391.823 150.198,391.790 149.625 C 391.758 149.052,391.731 149.521,391.731 150.667 M8.230 150.667 C 8.230 151.721,8.257 152.152,8.290 151.625 C 8.323 151.098,8.323 150.235,8.290 149.708 C 8.257 149.181,8.230 149.612,8.230 150.667 M256.552 150.583 C 256.553 151.133,256.584 151.338,256.621 151.039 C 256.658 150.739,256.657 150.289,256.619 150.039 C 256.581 149.788,256.551 150.033,256.552 150.583 M309.052 150.583 C 309.053 151.133,309.084 151.338,309.121 151.039 C 309.158 150.739,309.157 150.289,309.119 150.039 C 309.081 149.788,309.051 150.033,309.052 150.583 M70.048 150.583 C 70.049 151.042,70.081 151.209,70.120 150.956 C 70.158 150.703,70.157 150.328,70.117 150.123 C 70.078 149.918,70.046 150.125,70.048 150.583 M371.666 154.950 C 371.621 157.627,371.641 159.760,371.711 159.689 C 371.781 159.619,371.819 157.429,371.794 154.822 L 371.750 150.083 371.666 154.950 M343.746 155.236 C 343.749 159.080,343.786 159.732,344.000 159.791 C 344.182 159.840,344.194 159.819,344.044 159.713 C 343.893 159.605,343.826 158.416,343.790 155.159 L 343.741 150.750 343.746 155.236 M98.372 152.000 C 98.372 152.321,98.406 152.452,98.448 152.292 C 98.490 152.131,98.490 151.869,98.448 151.708 C 98.406 151.548,98.372 151.679,98.372 152.000 M146.390 152.750 C 146.391 153.483,146.420 153.763,146.456 153.371 C 146.491 152.979,146.490 152.379,146.454 152.037 C 146.419 151.696,146.390 152.017,146.390 152.750 M95.548 152.750 C 95.549 153.208,95.581 153.376,95.620 153.123 C 95.658 152.869,95.657 152.494,95.617 152.289 C 95.578 152.084,95.546 152.292,95.548 152.750 M11.042 153.083 C 11.044 153.450,11.078 153.580,11.118 153.373 C 11.158 153.166,11.156 152.866,11.115 152.706 C 11.073 152.547,11.040 152.717,11.042 153.083 M98.372 153.333 C 98.372 153.654,98.406 153.785,98.448 153.625 C 98.490 153.465,98.490 153.202,98.448 153.042 C 98.406 152.881,98.372 153.012,98.372 153.333 M388.875 153.417 C 388.877 153.783,388.911 153.914,388.951 153.706 C 388.991 153.499,388.990 153.199,388.948 153.040 C 388.906 152.880,388.874 153.050,388.875 153.417 M367.167 157.583 C 367.478 157.904,367.770 158.167,367.815 158.167 C 367.861 158.167,367.644 157.904,367.333 157.583 C 367.022 157.262,366.730 157.000,366.685 157.000 C 366.639 157.000,366.856 157.262,367.167 157.583 M202.542 158.282 C 202.702 158.323,202.965 158.323,203.125 158.282 C 203.285 158.240,203.154 158.205,202.833 158.205 C 202.512 158.205,202.381 158.240,202.542 158.282 M281.208 158.282 C 281.369 158.323,281.631 158.323,281.792 158.282 C 281.952 158.240,281.821 158.205,281.500 158.205 C 281.179 158.205,281.048 158.240,281.208 158.282 M357.375 158.282 C 357.535 158.323,357.798 158.323,357.958 158.282 C 358.119 158.240,357.988 158.205,357.667 158.205 C 357.346 158.205,357.215 158.240,357.375 158.282 M371.369 162.271 C 371.613 162.343,371.663 162.623,371.703 164.136 L 371.750 165.917 373.000 165.929 L 374.250 165.942 373.047 165.880 L 371.844 165.819 371.797 164.036 C 371.754 162.394,371.724 162.251,371.417 162.220 C 371.168 162.194,371.156 162.207,371.369 162.271 M343.702 164.034 L 343.667 165.819 342.458 165.876 L 341.250 165.934 342.464 165.967 C 343.916 166.007,343.864 166.088,343.791 163.905 L 343.736 162.250 343.702 164.034 M90.159 163.455 L 92.151 163.510 92.212 164.463 L 92.274 165.417 92.262 164.417 L 92.250 163.417 90.208 163.409 L 88.166 163.401 90.159 163.455 M152.569 163.562 C 152.520 163.687,152.509 164.193,152.543 164.687 L 152.605 165.583 152.636 164.547 L 152.667 163.510 154.708 163.458 L 156.750 163.405 154.703 163.369 C 153.099 163.341,152.637 163.383,152.569 163.562 M31.699 164.875 L 31.732 166.083 31.790 164.960 L 31.848 163.837 39.299 163.792 L 46.750 163.746 39.208 163.707 L 31.667 163.667 31.699 164.875 M118.720 163.792 C 120.811 163.818,124.186 163.818,126.220 163.791 C 128.253 163.765,126.542 163.743,122.417 163.743 C 118.292 163.743,116.628 163.765,118.720 163.792 " stroke="none" fill="#7fa57a" fill-rule="evenodd"></path><path id="path3" d="" stroke="none" fill="#7c7c8c" fill-rule="evenodd"></path><path id="path4" d="M300.873 38.622 L 302.162 38.680 302.210 43.715 L 302.258 48.750 302.254 43.667 L 302.250 38.583 300.917 38.573 L 299.583 38.563 300.873 38.622 M75.573 41.875 L 75.083 42.417 75.625 41.927 C 75.923 41.658,76.167 41.414,76.167 41.385 C 76.167 41.257,76.029 41.370,75.573 41.875 M81.458 42.287 C 81.756 42.324,82.244 42.324,82.542 42.287 C 82.840 42.250,82.596 42.220,82.000 42.220 C 81.404 42.220,81.160 42.250,81.458 42.287 M211.788 42.287 C 212.084 42.324,212.609 42.324,212.955 42.288 C 213.300 42.252,213.058 42.222,212.417 42.221 C 211.775 42.221,211.492 42.250,211.788 42.287 M101.958 45.787 C 102.256 45.824,102.744 45.824,103.042 45.787 C 103.340 45.750,103.096 45.720,102.500 45.720 C 101.904 45.720,101.660 45.750,101.958 45.787 M169.295 45.787 C 169.594 45.825,170.044 45.824,170.295 45.786 C 170.545 45.748,170.300 45.717,169.750 45.718 C 169.200 45.719,168.995 45.750,169.295 45.787 M233.375 45.786 C 233.627 45.824,234.040 45.824,234.292 45.786 C 234.544 45.748,234.338 45.717,233.833 45.717 C 233.329 45.717,233.123 45.748,233.375 45.786 M252.375 45.786 C 252.627 45.824,253.040 45.824,253.292 45.786 C 253.544 45.748,253.338 45.717,252.833 45.717 C 252.329 45.717,252.123 45.748,252.375 45.786 M287.295 45.787 C 287.594 45.825,288.044 45.824,288.295 45.786 C 288.545 45.748,288.300 45.717,287.750 45.718 C 287.200 45.719,286.995 45.750,287.295 45.787 M308.042 45.786 C 308.294 45.824,308.706 45.824,308.958 45.786 C 309.210 45.748,309.004 45.717,308.500 45.717 C 307.996 45.717,307.790 45.748,308.042 45.786 M113.667 46.103 C 114.632 46.227,116.130 46.241,116.058 46.125 C 116.015 46.056,115.366 46.011,114.615 46.025 C 113.864 46.039,113.438 46.074,113.667 46.103 M124.276 46.125 C 124.233 46.194,124.897 46.250,125.750 46.250 C 126.603 46.250,127.267 46.194,127.224 46.125 C 127.182 46.056,126.518 46.000,125.750 46.000 C 124.982 46.000,124.318 46.056,124.276 46.125 M136.125 46.122 C 136.515 46.157,137.152 46.157,137.542 46.122 C 137.931 46.087,137.612 46.058,136.833 46.058 C 136.054 46.058,135.735 46.087,136.125 46.122 M141.745 46.121 C 142.659 46.158,143.295 46.259,143.382 46.382 C 143.484 46.525,143.506 46.511,143.458 46.333 C 143.404 46.135,143.068 46.081,141.820 46.073 L 140.250 46.062 141.745 46.121 M155.880 46.123 C 156.318 46.157,156.993 46.157,157.380 46.122 C 157.767 46.087,157.408 46.059,156.583 46.059 C 155.758 46.060,155.442 46.088,155.880 46.123 M182.963 46.122 C 183.355 46.157,183.955 46.157,184.296 46.121 C 184.637 46.085,184.317 46.057,183.583 46.057 C 182.850 46.058,182.571 46.087,182.963 46.122 M265.746 46.201 C 265.701 46.320,265.684 50.579,265.708 55.667 L 265.753 64.917 265.793 55.542 L 265.833 46.167 267.077 46.167 L 268.320 46.167 268.369 47.612 C 268.406 48.726,268.474 49.072,268.667 49.124 C 268.844 49.172,268.858 49.151,268.716 49.049 C 268.593 48.962,268.495 48.354,268.466 47.495 L 268.417 46.083 267.122 46.035 C 266.182 45.999,265.806 46.045,265.746 46.201 M204.372 46.667 C 204.372 46.987,204.406 47.119,204.448 46.958 C 204.490 46.798,204.490 46.535,204.448 46.375 C 204.406 46.215,204.372 46.346,204.372 46.667 M175.167 47.750 C 175.478 48.071,175.770 48.333,175.815 48.333 C 175.861 48.333,175.644 48.071,175.333 47.750 C 175.022 47.429,174.730 47.167,174.685 47.167 C 174.639 47.167,174.856 47.429,175.167 47.750 M95.740 48.375 L 95.250 48.917 95.792 48.427 C 96.090 48.158,96.333 47.914,96.333 47.885 C 96.333 47.757,96.196 47.870,95.740 48.375 M287.460 48.285 C 287.668 48.324,287.968 48.323,288.127 48.281 C 288.286 48.239,288.117 48.207,287.750 48.209 C 287.383 48.211,287.253 48.245,287.460 48.285 M303.906 49.708 L 303.417 50.250 303.958 49.760 C 304.463 49.304,304.577 49.167,304.448 49.167 C 304.419 49.167,304.175 49.410,303.906 49.708 M97.658 50.125 L 97.083 50.750 97.708 50.176 C 98.290 49.641,98.410 49.500,98.283 49.500 C 98.255 49.500,97.974 49.781,97.658 50.125 M259.241 55.833 C 259.241 58.904,259.264 60.160,259.291 58.625 C 259.319 57.090,259.319 54.577,259.291 53.042 C 259.264 51.506,259.241 52.762,259.241 55.833 M268.539 54.667 C 268.539 54.987,268.573 55.119,268.615 54.958 C 268.657 54.798,268.657 54.535,268.615 54.375 C 268.573 54.215,268.539 54.346,268.539 54.667 M185.074 59.583 C 185.074 62.517,185.097 63.693,185.125 62.198 C 185.152 60.702,185.152 58.302,185.125 56.865 C 185.097 55.427,185.074 56.650,185.074 59.583 M225.212 55.500 C 225.212 55.913,225.245 56.081,225.284 55.875 C 225.324 55.669,225.324 55.331,225.284 55.125 C 225.245 54.919,225.212 55.087,225.212 55.500 M256.559 56.250 C 256.559 57.075,256.587 57.434,256.622 57.047 C 256.657 56.660,256.657 55.985,256.623 55.547 C 256.588 55.109,256.560 55.425,256.559 56.250 M302.241 59.917 C 302.240 62.667,302.263 63.815,302.291 62.469 C 302.319 61.122,302.319 58.872,302.291 57.469 C 302.263 56.065,302.241 57.167,302.241 59.917 M228.205 56.667 C 228.205 56.987,228.240 57.119,228.282 56.958 C 228.323 56.798,228.323 56.535,228.282 56.375 C 228.240 56.215,228.205 56.346,228.205 56.667 M165.333 60.719 C 165.333 60.748,165.577 60.991,165.875 61.260 L 166.417 61.750 165.927 61.208 C 165.471 60.703,165.333 60.590,165.333 60.719 M74.000 61.885 C 74.000 61.914,74.244 62.158,74.542 62.427 L 75.083 62.917 74.594 62.375 C 74.138 61.870,74.000 61.757,74.000 61.885 M281.167 62.385 C 281.167 62.414,281.410 62.658,281.708 62.927 L 282.250 63.417 281.760 62.875 C 281.304 62.370,281.167 62.257,281.167 62.385 M227.333 62.552 C 227.333 62.581,227.577 62.825,227.875 63.094 L 228.417 63.583 227.927 63.042 C 227.471 62.537,227.333 62.423,227.333 62.552 M142.877 72.786 C 143.131 72.825,143.506 72.824,143.711 72.784 C 143.916 72.744,143.708 72.713,143.250 72.714 C 142.792 72.716,142.624 72.748,142.877 72.786 M23.297 137.290 C 23.782 137.324,24.532 137.323,24.964 137.289 C 25.396 137.255,25.000 137.227,24.083 137.228 C 23.167 137.228,22.813 137.256,23.297 137.290 M53.000 137.274 C 54.395 137.397,55.963 137.407,55.891 137.292 C 55.849 137.223,55.049 137.179,54.115 137.195 C 53.181 137.210,52.679 137.246,53.000 137.274 M188.942 137.292 C 188.899 137.360,189.401 137.396,190.057 137.371 C 192.201 137.289,192.448 137.223,190.718 137.195 C 189.784 137.179,188.985 137.223,188.942 137.292 M214.131 137.290 C 214.615 137.324,215.365 137.323,215.797 137.289 C 216.230 137.255,215.833 137.227,214.917 137.228 C 214.000 137.228,213.646 137.256,214.131 137.290 M265.542 137.289 C 265.977 137.324,266.690 137.324,267.125 137.289 C 267.560 137.255,267.204 137.227,266.333 137.227 C 265.462 137.227,265.106 137.255,265.542 137.289 M271.875 137.289 C 272.310 137.324,273.023 137.324,273.458 137.289 C 273.894 137.255,273.537 137.227,272.667 137.227 C 271.796 137.227,271.440 137.255,271.875 137.289 M288.729 137.411 C 288.677 137.546,288.674 137.752,288.721 137.870 C 288.768 137.987,288.813 137.917,288.820 137.715 C 288.833 137.366,288.916 137.343,290.375 137.291 L 291.917 137.236 290.370 137.201 C 289.141 137.174,288.804 137.217,288.729 137.411 M296.531 137.288 C 297.472 137.326,298.002 137.416,298.047 137.548 C 298.084 137.659,298.107 137.637,298.097 137.500 C 298.083 137.298,297.789 137.248,296.581 137.241 L 295.083 137.231 296.531 137.288 M89.125 138.123 C 89.698 138.156,90.635 138.156,91.208 138.123 C 91.781 138.091,91.313 138.064,90.167 138.064 C 89.021 138.064,88.552 138.091,89.125 138.123 M153.625 138.123 C 154.198 138.156,155.135 138.156,155.708 138.123 C 156.281 138.091,155.813 138.064,154.667 138.064 C 153.521 138.064,153.052 138.091,153.625 138.123 M264.879 138.833 C 264.879 139.246,264.911 139.415,264.951 139.208 C 264.991 139.002,264.991 138.665,264.951 138.458 C 264.911 138.252,264.879 138.421,264.879 138.833 M274.042 139.083 C 274.044 139.450,274.078 139.580,274.118 139.373 C 274.158 139.166,274.156 138.866,274.115 138.706 C 274.073 138.547,274.040 138.717,274.042 139.083 M297.879 140.167 C 297.879 140.579,297.911 140.748,297.951 140.542 C 297.991 140.335,297.991 139.998,297.951 139.792 C 297.911 139.585,297.879 139.754,297.879 140.167 M295.212 140.500 C 295.212 140.912,295.245 141.081,295.284 140.875 C 295.324 140.669,295.324 140.331,295.284 140.125 C 295.245 139.919,295.212 140.087,295.212 140.500 M271.375 141.583 C 271.377 141.950,271.411 142.080,271.451 141.873 C 271.491 141.666,271.490 141.366,271.448 141.206 C 271.406 141.047,271.374 141.217,271.375 141.583 M267.539 142.000 C 267.539 142.321,267.573 142.452,267.615 142.292 C 267.657 142.131,267.657 141.869,267.615 141.708 C 267.573 141.548,267.539 141.679,267.539 142.000 M291.372 143.000 C 291.372 143.321,291.406 143.452,291.448 143.292 C 291.490 143.131,291.490 142.869,291.448 142.708 C 291.406 142.548,291.372 142.679,291.372 143.000 M265.205 143.833 C 265.205 144.154,265.240 144.285,265.282 144.125 C 265.323 143.965,265.323 143.702,265.282 143.542 C 265.240 143.381,265.205 143.512,265.205 143.833 M273.709 144.083 C 273.711 144.450,273.745 144.580,273.785 144.373 C 273.824 144.166,273.823 143.866,273.781 143.706 C 273.739 143.547,273.707 143.717,273.709 144.083 M297.545 145.333 C 297.545 145.746,297.578 145.915,297.618 145.708 C 297.657 145.502,297.657 145.165,297.618 144.958 C 297.578 144.752,297.545 144.921,297.545 145.333 M289.209 145.417 C 289.211 145.783,289.245 145.914,289.285 145.706 C 289.324 145.499,289.323 145.199,289.281 145.040 C 289.239 144.880,289.207 145.050,289.209 145.417 M295.539 145.500 C 295.539 145.821,295.573 145.952,295.615 145.792 C 295.657 145.631,295.657 145.369,295.615 145.208 C 295.573 145.048,295.539 145.179,295.539 145.500 M388.875 149.083 C 388.877 149.450,388.911 149.580,388.951 149.373 C 388.991 149.166,388.990 148.866,388.948 148.706 C 388.906 148.547,388.874 148.717,388.875 149.083 M174.731 150.667 C 174.731 151.813,174.758 152.281,174.790 151.708 C 174.823 151.135,174.823 150.198,174.790 149.625 C 174.758 149.052,174.731 149.521,174.731 150.667 M309.039 149.167 C 309.039 149.487,309.073 149.619,309.115 149.458 C 309.157 149.298,309.157 149.035,309.115 148.875 C 309.073 148.715,309.039 148.846,309.039 149.167 M323.552 149.583 C 323.553 150.133,323.584 150.338,323.621 150.039 C 323.658 149.739,323.657 149.289,323.619 149.039 C 323.581 148.788,323.551 149.033,323.552 149.583 M11.063 150.667 C 11.063 151.721,11.090 152.152,11.123 151.625 C 11.156 151.098,11.156 150.235,11.123 149.708 C 11.090 149.181,11.063 149.612,11.063 150.667 M67.230 150.667 C 67.230 151.721,67.257 152.152,67.290 151.625 C 67.323 151.098,67.323 150.235,67.290 149.708 C 67.257 149.181,67.230 149.612,67.230 150.667 M70.039 149.333 C 70.039 149.654,70.073 149.785,70.115 149.625 C 70.157 149.465,70.157 149.202,70.115 149.042 C 70.073 148.881,70.039 149.012,70.039 149.333 M306.230 150.667 C 306.230 151.721,306.257 152.152,306.290 151.625 C 306.323 151.098,306.323 150.235,306.290 149.708 C 306.257 149.181,306.230 149.612,306.230 150.667 M326.394 150.750 C 326.395 151.667,326.423 152.020,326.456 151.536 C 326.490 151.052,326.490 150.302,326.456 149.869 C 326.421 149.437,326.394 149.833,326.394 150.750 M177.558 150.667 C 177.558 151.446,177.587 151.765,177.622 151.375 C 177.657 150.985,177.657 150.348,177.622 149.958 C 177.587 149.569,177.558 149.887,177.558 150.667 M323.552 151.750 C 323.553 152.300,323.584 152.505,323.621 152.205 C 323.658 151.906,323.657 151.456,323.619 151.205 C 323.581 150.955,323.551 151.200,323.552 151.750 M95.539 151.500 C 95.539 151.821,95.573 151.952,95.615 151.792 C 95.657 151.631,95.657 151.369,95.615 151.208 C 95.573 151.048,95.539 151.179,95.539 151.500 M70.042 151.917 C 70.044 152.283,70.078 152.414,70.118 152.206 C 70.158 151.999,70.156 151.699,70.115 151.540 C 70.073 151.380,70.040 151.550,70.042 151.917 M309.042 152.083 C 309.044 152.450,309.078 152.580,309.118 152.373 C 309.158 152.166,309.156 151.866,309.115 151.706 C 309.073 151.547,309.040 151.717,309.042 152.083 M388.879 152.167 C 388.879 152.579,388.911 152.748,388.951 152.542 C 388.991 152.335,388.991 151.998,388.951 151.792 C 388.911 151.585,388.879 151.754,388.879 152.167 M112.883 152.667 C 112.883 153.171,112.915 153.377,112.953 153.125 C 112.991 152.873,112.991 152.460,112.953 152.208 C 112.915 151.956,112.883 152.162,112.883 152.667 M351.212 155.167 C 351.212 155.579,351.245 155.748,351.284 155.542 C 351.324 155.335,351.324 154.998,351.284 154.792 C 351.245 154.585,351.212 154.754,351.212 155.167 M378.550 155.333 C 378.550 155.837,378.581 156.044,378.619 155.792 C 378.658 155.540,378.658 155.127,378.619 154.875 C 378.581 154.623,378.550 154.829,378.550 155.333 M336.500 157.219 C 336.500 157.248,336.744 157.491,337.042 157.760 L 337.583 158.250 337.094 157.708 C 336.638 157.203,336.500 157.090,336.500 157.219 M364.833 159.219 C 364.833 159.248,365.077 159.491,365.375 159.760 L 365.917 160.250 365.427 159.708 C 364.971 159.203,364.833 159.090,364.833 159.219 M98.083 160.167 C 98.441 160.533,98.772 160.833,98.818 160.833 C 98.863 160.833,98.608 160.533,98.250 160.167 C 97.892 159.800,97.562 159.500,97.516 159.500 C 97.470 159.500,97.725 159.800,98.083 160.167 M103.877 159.953 C 104.131 159.991,104.506 159.990,104.711 159.951 C 104.916 159.911,104.708 159.880,104.250 159.881 C 103.792 159.882,103.624 159.915,103.877 159.953 M140.211 159.953 C 140.464 159.991,140.839 159.990,141.044 159.951 C 141.249 159.911,141.042 159.880,140.583 159.881 C 140.125 159.882,139.957 159.915,140.211 159.953 M104.042 162.448 C 104.202 162.490,104.465 162.490,104.625 162.448 C 104.785 162.406,104.654 162.372,104.333 162.372 C 104.013 162.372,103.881 162.406,104.042 162.448 M140.294 162.451 C 140.501 162.491,140.801 162.490,140.960 162.448 C 141.120 162.406,140.950 162.374,140.583 162.375 C 140.217 162.377,140.086 162.411,140.294 162.451 M129.889 164.833 C 129.889 165.521,129.919 165.802,129.955 165.458 C 129.991 165.115,129.991 164.552,129.955 164.208 C 129.919 163.865,129.889 164.146,129.889 164.833 M114.888 164.917 C 114.889 165.558,114.919 165.800,114.955 165.455 C 114.991 165.109,114.990 164.584,114.954 164.288 C 114.917 163.992,114.887 164.275,114.888 164.917 M15.000 165.306 C 15.000 165.428,14.643 165.511,14.042 165.531 L 13.083 165.562 13.982 165.624 C 14.821 165.682,15.375 165.486,15.114 165.225 C 15.051 165.162,15.000 165.199,15.000 165.306 M65.217 165.350 C 65.112 165.454,64.640 165.508,64.116 165.475 C 63.611 165.443,63.233 165.473,63.275 165.542 C 63.424 165.782,65.116 165.679,65.333 165.417 C 65.573 165.128,65.488 165.079,65.217 165.350 M179.479 165.375 C 179.658 165.603,179.929 165.660,180.729 165.635 L 181.750 165.604 180.756 165.542 C 180.209 165.509,179.646 165.392,179.506 165.282 C 179.282 165.108,179.278 165.120,179.479 165.375 M328.312 165.375 C 328.491 165.603,328.762 165.660,329.562 165.635 L 330.583 165.604 329.589 165.542 C 329.042 165.509,328.480 165.392,328.339 165.282 C 328.115 165.108,328.112 165.120,328.312 165.375 M302.317 165.551 C 302.392 165.625,302.857 165.662,303.351 165.632 L 304.250 165.579 303.216 165.498 C 302.647 165.453,302.243 165.477,302.317 165.551 M87.217 165.624 C 88.208 165.654,89.783 165.654,90.717 165.624 C 91.652 165.595,90.842 165.570,88.917 165.571 C 86.992 165.571,86.227 165.595,87.217 165.624 M154.217 165.624 C 155.208 165.654,156.783 165.654,157.717 165.624 C 158.652 165.595,157.842 165.570,155.917 165.571 C 153.992 165.571,153.227 165.595,154.217 165.624 M224.458 165.621 C 224.756 165.658,225.244 165.658,225.542 165.621 C 225.840 165.584,225.596 165.553,225.000 165.553 C 224.404 165.553,224.160 165.584,224.458 165.621 M259.125 165.621 C 259.423 165.658,259.910 165.658,260.208 165.621 C 260.506 165.584,260.262 165.553,259.667 165.553 C 259.071 165.553,258.827 165.584,259.125 165.621 M385.461 165.621 C 385.761 165.658,386.211 165.657,386.461 165.619 C 386.712 165.581,386.467 165.551,385.917 165.552 C 385.367 165.553,385.162 165.584,385.461 165.621 " stroke="none" fill="#637e67" fill-rule="evenodd"></path></g></svg>